<?xml version="1.0"?>
<svg xmlns="http://www.w3.org/2000/svg" xmlns:xlink="http://www.w3.org/1999/xlink" version="1.1" id="Layer_1" x="0px" y="0px" viewBox="0 0 501.551 501.551" style="enable-background:new 0 0 501.551 501.551;" xml:space="preserve" width="512px" height="512px" class=""><g><rect x="437.812" y="217.339" style="fill:#000000" width="29.257" height="65.829" data-original="#CDD6E0" class="" data-old_color="#FFFFFF"/><path style="fill:#000000" d="M326.008,21.943C323.918,9.404,313.469,0,300.931,0H179.722c-12.539,0-22.988,9.404-25.078,21.943  l-31.347,228.833l31.347,228.833c2.09,12.539,12.539,21.943,25.078,21.943h122.253c12.539,0,22.988-9.404,25.078-21.943  L358.4,250.776L326.008,21.943z" data-original="#40596B" class="active-path" data-old_color="#FFFFFF"/><path style="fill:#000000" d="M341.682,28.212h-202.71c-11.494,0-20.898,9.404-20.898,20.898v403.331  c0,11.494,9.404,20.898,20.898,20.898h203.755c11.494,0,20.898-9.404,20.898-20.898V49.11  C362.58,37.616,353.176,28.212,341.682,28.212z" data-original="#CDD6E0" class="" data-old_color="#FFFFFF"/><circle style="fill:#000000" cx="240.327" cy="250.776" r="205.845" data-original="#FF7058" class="" data-old_color="#FFFFFF"/><path style="fill:#FFFFFF" d="M240.327,417.959c-91.951,0-167.184-75.233-167.184-167.184S148.376,83.592,240.327,83.592  S407.51,158.824,407.51,250.776S332.278,417.959,240.327,417.959z" data-original="#FFFFFF" class=""/><path style="fill:#FFFFFF" d="M240.327,367.804c-64.784,0-117.029-52.245-117.029-117.029s52.245-117.029,117.029-117.029  s117.029,52.245,117.029,117.029S305.11,367.804,240.327,367.804z" data-original="#F2F2F2" class="" data-old_color="#000000"/><g>
	<circle style="fill:#000000" cx="240.327" cy="108.669" r="13.584" data-original="#FF7058" class="" data-old_color="#FFFFFF"/>
	<circle style="fill:#000000" cx="240.327" cy="392.882" r="13.584" data-original="#FF7058" class="" data-old_color="#FFFFFF"/>
	<circle style="fill:#000000" cx="382.433" cy="250.776" r="13.584" data-original="#FF7058" class="" data-old_color="#FFFFFF"/>
	<circle style="fill:#000000" cx="98.22" cy="250.776" r="13.584" data-original="#FF7058" class="" data-old_color="#FFFFFF"/>
</g><path style="fill:#000000" d="M310.335,250.776c0,7.314-6.269,13.584-13.584,13.584h-57.469c-7.314,0-13.584-6.269-13.584-13.584  v-90.906c0-7.314,6.269-13.584,13.584-13.584c7.314,0,12.539,6.269,12.539,13.584v78.367h45.975  C305.11,237.192,310.335,243.461,310.335,250.776z" data-original="#40596B" class="active-path" data-old_color="#FFFFFF"/></g> </svg>
