<?xml version="1.0" encoding="iso-8859-1"?>
<!-- Generator: Adobe Illustrator 19.0.0, SVG Export Plug-In . SVG Version: 6.00 Build 0)  -->
<svg version="1.1" id="Capa_1" xmlns="http://www.w3.org/2000/svg" xmlns:xlink="http://www.w3.org/1999/xlink" x="0px" y="0px"
	 viewBox="0 0 509.009 509.009" style="enable-background:new 0 0 509.009 509.009;" xml:space="preserve">
<g transform="matrix(1.25 0 0 -1.25 0 45)">
	<g>
		<g>
			<path style="fill:#292F33;" d="M303.482-289.956c5.507-12.618-3.049-27.204,8.408-49.186
				c12.379-23.745,41.574-31.869,60.211-32.063c12.265-0.114,13.528,5.097,8.636,7.589c-7.748,3.971-6.804,9.91-6.804,9.91
				s5.279-4.87,14.882-7.543c7.066-1.957,14.871-2.446,17.271,4.312c2.059,5.803-18.751,1.616-28.353,22.232
				c12.425-5.621,19.263-2.537,24.417,1.729c2.924,2.423,5.154,7.111,1.24,5.689c-3.903-1.422-30.754-4.449-34.668,23.461
				c12.379-14.006,27.341-12.766,34.35-8.055c4.585,3.083,5.723,9.136,1.252,7.066c-16.179-7.464-23.336,6.895-33.837,21.129
				c-12.675,17.146-33.405,11.332-41.938,15.064C325.407-267.246,303.482-289.956,303.482-289.956"/>
			<g>
				<path style="fill:#553788;" d="M113.394-40.43c10.183-10.183,10.183-26.681,0-36.864c-10.183-10.172-26.681-10.172-36.864,0
					c-10.172,10.183-10.172,26.681,0,36.864C86.713-30.247,103.211-30.247,113.394-40.43"/>
				<path style="fill:#553788;" d="M80.819-78.751c10.183-10.183,10.183-26.681,0-36.864c-10.183-10.172-26.681-10.172-36.853,0
					c-10.172,10.183-10.172,26.681,0,36.864S70.636-68.567,80.819-78.751"/>
				<path style="fill:#553788;" d="M56.05-122.51c10.172-10.183,10.172-26.681,0-36.864c-10.183-10.183-26.681-10.183-36.864,0
					c-10.172,10.183-10.172,26.681,0,36.864C29.369-112.338,45.867-112.338,56.05-122.51"/>
				<path style="fill:#553788;" d="M44.558-170.899c10.172-10.183,10.172-26.67,0-36.864c-10.183-10.172-26.692-10.172-36.875,0
					c-10.172,10.194-10.172,26.681,0,36.864C17.866-160.716,34.375-160.716,44.558-170.899"/>
				<path style="fill:#553788;" d="M49.724-220.427c10.183-10.183,10.183-26.692,0-36.853c-10.172-10.183-26.681-10.183-36.853,0
					c-10.183,10.16-10.183,26.67,0,36.853C23.043-210.244,39.552-210.244,49.724-220.427"/>
				<path style="fill:#553788;" d="M76.507-261.603c10.183-10.183,10.183-26.692,0-36.864c-10.183-10.183-26.67-10.183-36.864,0
					c-10.172,10.172-10.172,26.681,0,36.864C49.838-251.42,66.324-251.42,76.507-261.603"/>
				<path style="fill:#553788;" d="M122.872-277.441c10.183-10.194,10.183-26.692,0-36.864s-26.681-10.172-36.864,0
					c-10.172,10.172-10.172,26.669,0,36.864C96.191-267.269,112.688-267.269,122.872-277.441"/>
				<path style="fill:#553788;" d="M172.979-284.347c10.183-10.183,10.183-26.692,0-36.875c-10.183-10.16-26.681-10.16-36.864,0
					c-10.172,10.183-10.172,26.692,0,36.875C146.298-274.175,162.796-274.175,172.979-284.347"/>
				<path style="fill:#553788;" d="M221.642-278.874c10.194-10.194,10.194-26.692,0-36.875c-10.172-10.172-26.681-10.172-36.853,0
					c-10.183,10.183-10.183,26.681,0,36.875C194.961-268.714,211.47-268.714,221.642-278.874"/>
				<path style="fill:#553788;" d="M269.452-262.183c10.183-10.183,10.183-26.692,0-36.853c-10.183-10.183-26.692-10.183-36.864,0
					c-10.194,10.16-10.194,26.669,0,36.853C242.759-252,259.268-252,269.452-262.183"/>
				<path style="fill:#553788;" d="M114.805-44.765c10.183-10.183,26.681-10.183,36.864,0c10.172,10.183,10.172,26.692,0,36.864
					c-10.183,10.172-26.681,10.172-36.864,0S104.622-34.582,114.805-44.765"/>
				<path style="fill:#553788;" d="M158.564-20.007c10.194-10.172,26.692-10.172,36.864,0c10.183,10.183,10.183,26.681,0,36.864
					c-10.172,10.172-26.67,10.172-36.864,0C148.381,6.674,148.381-9.824,158.564-20.007"/>
				<path style="fill:#553788;" d="M206.953-8.493c10.183-10.172,26.681-10.172,36.864,0c10.172,10.183,10.172,26.681,0,36.864
					c-10.183,10.172-26.681,10.172-36.864,0C196.77,18.188,196.77,1.69,206.953-8.493"/>
				<path style="fill:#553788;" d="M256.481-13.67c10.194-10.183,26.692-10.183,36.864,0c10.172,10.172,10.172,26.681,0,36.853
					c-10.172,10.183-26.67,10.183-36.864,0C246.298,13.011,246.298-3.498,256.481-13.67"/>
				<path style="fill:#553788;" d="M297.668-40.43c10.172-10.183,26.669-10.183,36.841,0c10.194,10.183,10.194,26.67,0,36.853
					c-10.172,10.172-26.669,10.172-36.841,0C287.474-13.761,287.474-30.247,297.668-40.43"/>
				<path style="fill:#553788;" d="M313.495-86.852c10.183-10.183,26.692-10.183,36.875,0c10.16,10.183,10.16,26.67,0,36.864
					c-10.183,10.172-26.692,10.172-36.875,0C303.323-60.182,303.323-76.668,313.495-86.852"/>
				<path style="fill:#553788;" d="M320.469-136.914c10.183-10.183,26.681-10.183,36.864,0c10.16,10.183,10.16,26.681,0,36.853
					c-10.183,10.183-26.681,10.183-36.864,0C310.286-110.233,310.286-126.731,320.469-136.914"/>
				<path style="fill:#553788;" d="M314.94-185.577c10.183-10.183,26.681-10.183,36.864,0c10.172,10.172,10.172,26.681,0,36.853
					c-10.183,10.183-26.681,10.183-36.864,0C304.78-158.896,304.78-175.405,314.94-185.577"/>
				<path style="fill:#553788;" d="M298.237-233.397c10.183-10.172,26.692-10.172,36.853,0c10.183,10.194,10.183,26.704,0,36.875
					c-10.16,10.183-26.669,10.183-36.853,0C288.054-206.694,288.054-223.203,298.237-233.397"/>
			</g>
			<path style="fill:#F4900C;" d="M318.877-242.192c-11.298,11.298-29.639,11.298-40.949,0c-11.321-11.298-11.321-29.639,0-40.949
				l27.295-13.653l27.307,27.318L318.877-242.192z"/>
		</g>
	</g>
</g>
<g>
</g>
<g>
</g>
<g>
</g>
<g>
</g>
<g>
</g>
<g>
</g>
<g>
</g>
<g>
</g>
<g>
</g>
<g>
</g>
<g>
</g>
<g>
</g>
<g>
</g>
<g>
</g>
<g>
</g>
</svg>
